<?xml version="1.0" encoding="UTF-8"?>
<svg version="1.1" xmlns="http://www.w3.org/2000/svg" width="512" height="512">
<path d="M0 0 C1.01790619 0.00215515 2.03581238 0.0043103 3.08456421 0.00653076 C17.69363523 0.05620146 32.02575853 0.30709809 46.375 3.3125 C47.34985352 3.51117676 48.32470703 3.70985352 49.32910156 3.91455078 C97.7109774 14.03517194 141.69928269 35.9516877 177.375 70.3125 C178.3640332 71.26068604 178.3640332 71.26068604 179.37304688 72.22802734 C188.86130305 81.37247479 197.6012044 90.66984009 205.375 101.3125 C206.23306152 102.46355017 207.09113451 103.61459177 207.94921875 104.765625 C213.98736829 112.95680614 219.34595521 121.47054105 224.375 130.3125 C224.73948242 130.94430176 225.10396484 131.57610352 225.47949219 132.22705078 C247.08534998 169.97532572 256.85198095 212.74189997 256.6875 255.9375 C256.68534485 256.95540619 256.6831897 257.97331238 256.68096924 259.02206421 C256.63129854 273.63113523 256.38040191 287.96325853 253.375 302.3125 C253.07698486 303.77478027 253.07698486 303.77478027 252.77294922 305.26660156 C242.65232806 353.6484774 220.7358123 397.63678269 186.375 433.3125 C185.74287598 433.97185547 185.11075195 434.63121094 184.45947266 435.31054688 C175.31502521 444.79880305 166.01765991 453.5387044 155.375 461.3125 C154.22394983 462.17056152 153.07290823 463.02863451 151.921875 463.88671875 C143.73224019 469.92427396 135.22961724 475.30707302 126.375 480.3125 C125.66778809 480.7146875 124.96057617 481.116875 124.23193359 481.53125 C101.09654164 494.5566741 75.92537591 503.30551461 49.9375 508.625 C49.21860596 508.77235596 48.49971191 508.91971191 47.7590332 509.0715332 C33.08339502 511.86090125 18.55831162 512.66142619 3.64770508 512.62817383 C0.70811513 512.6250221 -2.2304558 512.64854926 -5.16992188 512.67382812 C-18.54306192 512.71848737 -31.43916711 511.51301542 -44.625 509.3125 C-46.33055054 509.03031616 -46.33055054 509.03031616 -48.07055664 508.74243164 C-91.33802759 500.97044532 -132.38793216 480.98345309 -165.625 452.3125 C-166.37007813 451.67828125 -167.11515625 451.0440625 -167.8828125 450.390625 C-181.38779833 438.57948485 -194.05918743 425.82889772 -204.625 411.3125 C-205.48149066 410.16255169 -206.33826433 409.01281411 -207.1953125 407.86328125 C-213.23534209 399.67315742 -218.61867614 391.16870382 -223.625 382.3125 C-224.0271875 381.60528809 -224.429375 380.89807617 -224.84375 380.16943359 C-237.8691741 357.03404164 -246.61801461 331.86287591 -251.9375 305.875 C-252.08485596 305.15610596 -252.23221191 304.43721191 -252.3840332 303.6965332 C-255.35789088 288.05024391 -255.99800362 272.57681954 -255.9375 256.6875 C-255.93534485 255.66959381 -255.9331897 254.65168762 -255.93096924 253.60293579 C-255.88129854 238.99386477 -255.63040191 224.66174147 -252.625 210.3125 C-252.42632324 209.33764648 -252.22764648 208.36279297 -252.02294922 207.35839844 C-241.90232806 158.9765226 -219.9858123 114.98821731 -185.625 79.3125 C-184.99287598 78.65314453 -184.36075195 77.99378906 -183.70947266 77.31445312 C-174.56502521 67.82619695 -165.26765991 59.0862956 -154.625 51.3125 C-153.47394983 50.45443848 -152.32290823 49.59636549 -151.171875 48.73828125 C-142.98224019 42.70072604 -134.47961724 37.31792698 -125.625 32.3125 C-124.91778809 31.9103125 -124.21057617 31.508125 -123.48193359 31.09375 C-100.34654164 18.0683259 -75.17537591 9.31948539 -49.1875 4 C-48.46860596 3.85264404 -47.74971191 3.70528809 -47.0090332 3.5534668 C-31.36274391 0.57960912 -15.88931954 -0.06050362 0 0 Z " fill="#59C0F8" transform="translate(255.625,-0.3125)"/>
<path d="M0 0 C7.48145987 5.62313071 13.44248211 12.53056633 19 20 C19.92039063 19.54109375 20.84078125 19.0821875 21.7890625 18.609375 C44.32361565 7.6030122 70.72034946 3.22715967 95.06591797 11.31542969 C120.32706898 20.25663992 140.69256352 37.04623858 152.44067383 61.32299805 C154.67487738 66.10708886 156.67936256 70.8763239 158 76 C158.30357422 77.15242188 158.30357422 77.15242188 158.61328125 78.328125 C159.66871859 82.66475189 160.08342227 86.51444891 160 91 C161.00417969 90.95359375 162.00835937 90.9071875 163.04296875 90.859375 C179.22156711 90.33825467 191.84742972 94.6450296 204.1875 105.3125 C217.09344239 117.42952115 223.85711537 131.97510879 224.5 149.75 C224.42019094 165.60350029 217.60632317 180.38191891 206.8125 191.8125 C192.78213994 205.11450804 177.65942689 208.58534607 159 209 C158.10752029 212.02420152 157.92497215 214.60168566 158.04296875 217.74609375 C158.47708635 233.9383948 157.30238027 246.45073793 146 259 C136.86759863 267.8313332 126.08686514 272.11489363 113.46377563 272.13371277 C112.16604218 272.13797775 110.86830872 272.14224274 109.53125 272.14663696 C108.10498044 272.14628748 106.6787109 272.14582597 105.25244141 272.14526367 C103.74058957 272.14825813 102.2287385 272.15166133 100.71688843 272.15544128 C96.61712252 272.16426178 92.5173775 272.16661873 88.41760302 272.16725707 C85.84951977 272.16796932 83.28144177 272.17010707 80.71335983 272.17275429 C71.73419612 272.18200519 62.75504723 272.18608998 53.77587891 272.18530273 C45.44066655 272.18470381 37.1055193 272.19521985 28.7703234 272.2110464 C21.59039084 272.22418743 14.41047938 272.22948381 7.23053491 272.22884732 C2.95328443 272.22859402 -1.32390832 272.23135101 -5.6011467 272.24202538 C-9.6346043 272.25181599 -13.66795032 272.25171174 -17.7014122 272.24450874 C-19.1685757 272.24347597 -20.63574655 272.24574631 -22.10289764 272.2518692 C-48.64651136 272.35531975 -73.97303352 266.44234119 -94 248 C-94.88945313 247.20207031 -95.77890625 246.40414063 -96.6953125 245.58203125 C-115.22958303 228.10612436 -125.71195217 204.45696014 -126.47070312 179.046875 C-126.72669661 151.87743294 -116.79073747 127.31819519 -97.76171875 107.69140625 C-91.14736591 101.44511887 -83.73371466 96.71377709 -76 92 C-76.825 91.01 -77.65 90.02 -78.5 89 C-81.59511787 84.88054551 -83.94475989 80.52683123 -86.25 75.9375 C-86.59095703 75.26525391 -86.93191406 74.59300781 -87.28320312 73.90039062 C-93.35443511 61.55273592 -94.59420666 45.27826638 -91.125 31.859375 C-89.96953686 28.71225829 -88.65573879 25.91225122 -87 23 C-86.49210937 22.05511719 -85.98421875 21.11023438 -85.4609375 20.13671875 C-77.52795816 6.54538211 -65.43914984 -3.3160499 -50.375 -7.9375 C-48.92174836 -8.31197269 -47.46361959 -8.66835586 -46 -9 C-45.09314453 -9.27457031 -45.09314453 -9.27457031 -44.16796875 -9.5546875 C-28.5022344 -12.77251402 -13.22386187 -8.25219505 0 0 Z " fill="#F0F0F0" transform="translate(207,125)"/>
<path d="M0 0 C16.4851072 12.92824299 29.87122999 29.65921956 35.0234375 50.37109375 C35.29929687 51.40621094 35.57515625 52.44132812 35.859375 53.5078125 C41.08173476 75.6669078 38.71847571 100.35989245 27.3359375 120.33203125 C26.9028125 121.00492188 26.4696875 121.6778125 26.0234375 122.37109375 C25.4046875 121.73171875 24.7859375 121.09234375 24.1484375 120.43359375 C23.10992829 119.40954846 22.06768132 118.38929067 21.0234375 117.37109375 C20.00056641 116.35402344 20.00056641 116.35402344 18.95703125 115.31640625 C7.70024355 104.59742224 -7.10977228 96.01871784 -22.9765625 95.37109375 C-24.60851562 95.29375 -24.60851562 95.29375 -26.2734375 95.21484375 C-40.20975051 94.8678816 -51.99022066 97.21438121 -64.1484375 104.04296875 C-66.9765625 105.37109375 -66.9765625 105.37109375 -69.9765625 104.37109375 C-71.6328125 102.0703125 -71.6328125 102.0703125 -73.4765625 99.05859375 C-87.08145129 78.10307823 -107.95529338 63.33256592 -132.38867188 57.82763672 C-137.22960906 56.85500628 -142.08900821 56.06844192 -146.9765625 55.37109375 C-146.63740682 36.37837566 -132.88006709 19.14755961 -119.9765625 6.37109375 C-110.6032915 -2.29504445 -99.60129457 -8.4827538 -87.7265625 -13.00390625 C-86.78949463 -13.36186279 -86.78949463 -13.36186279 -85.83349609 -13.72705078 C-57.29692786 -24.01807395 -24.12035894 -17.658485 0 0 Z " fill="#FEE132" transform="translate(329.9765625,150.62890625)"/>
<path d="M0 0 C14.47798227 12.38162285 23.00140784 29.89381519 24.6875 48.80078125 C24.88726523 57.22566249 23.57577244 64.80937259 21.33984375 72.90234375 C20.94024636 74.50557693 20.54379727 76.10960269 20.15234375 77.71484375 C19.75015625 79.29265625 19.75015625 79.29265625 19.33984375 80.90234375 C19.00984375 80.90234375 18.67984375 80.90234375 18.33984375 80.90234375 C18.00984375 79.64421875 17.67984375 78.38609375 17.33984375 77.08984375 C13.87806651 66.78577441 6.64059432 58.70429171 -2.91796875 53.7265625 C-11.5727903 49.69253551 -18.83318302 48.62717733 -28.32421875 48.6640625 C-30.60287061 48.64865349 -32.88151657 48.63235066 -35.16015625 48.61523438 C-38.73288033 48.59873958 -42.30517038 48.58988319 -45.87792969 48.59692383 C-49.3396884 48.59953845 -52.80013516 48.57147563 -56.26171875 48.5390625 C-57.32951569 48.54926926 -58.39731262 48.55947601 -59.49746704 48.56999207 C-66.88214032 48.47241844 -66.88214032 48.47241844 -70.8371582 45.57446289 C-73.21421092 42.09021996 -73.22690472 39.84983693 -73.22265625 35.65234375 C-73.60712791 21.14819234 -77.89456374 8.10555061 -83.66015625 -5.09765625 C-55.85870012 -20.47796247 -25.57442712 -20.16661874 0 0 Z " fill="#CFD1CA" transform="translate(344.66015625,261.09765625)"/>
<path d="M0 0 C8.03438577 14.28723382 6.61893057 35.96133322 3.0546875 51.35546875 C0.59312381 59.86153882 -2.18343576 68.51712341 -7 76 C-7.61875 75.360625 -8.2375 74.72125 -8.875 74.0625 C-9.91350921 73.03845471 -10.95575618 72.01819692 -12 71 C-12.68191406 70.32195312 -13.36382812 69.64390625 -14.06640625 68.9453125 C-25.32319395 58.22632849 -40.13320978 49.64762409 -56 49 C-57.08796875 48.9484375 -58.1759375 48.896875 -59.296875 48.84375 C-73.23318801 48.49678785 -85.01365816 50.84328746 -97.171875 57.671875 C-100 59 -100 59 -103 58 C-104.65625 55.69921875 -104.65625 55.69921875 -106.5 52.6875 C-110.38159348 46.65187513 -114.83316064 41.57768059 -119.77734375 36.3984375 C-122 34 -122 34 -123 32 C-121.906875 32.020625 -120.81375 32.04125 -119.6875 32.0625 C-106.38920242 31.9996964 -95.21278099 28.58288419 -82.80517578 24.02685547 C-78.84955612 22.57887146 -74.86899136 21.21295324 -70.875 19.875 C-70.16303467 19.63563721 -69.45106934 19.39627441 -68.7175293 19.1496582 C-60.19371806 16.33258779 -51.51953542 14.06343155 -42.84521484 11.76318359 C-39.97078732 10.99216416 -37.10399796 10.19728158 -34.23828125 9.39453125 C-7.77400014 2 -7.77400014 2 0 2 C0 1.34 0 0.68 0 0 Z " fill="#FEBD2C" transform="translate(363,197)"/>
<path d="M0 0 C7.08929486 3.31132887 13.02453369 7.81859863 16.5859375 14.94140625 C17.09630837 18.99520914 17.47868291 23.11887205 15.64453125 26.86328125 C13.04547225 30.15487948 10.50741563 31.70128069 6.5859375 32.94140625 C-3.94419681 34.04713464 -12.82640394 32.73967905 -21.2890625 26.19140625 C-25.33950012 22.36172707 -28.03724009 18.25406892 -28.67578125 12.640625 C-28.5629724 9.1079267 -28.15166572 6.81845684 -25.84375 4.07421875 C-18.43702755 -2.40278959 -9.24139707 -2.86546751 0 0 Z " fill="#FDEB73" transform="translate(304.4140625,154.05859375)"/>
<path d="M0 0 C5.4529777 4.55275372 10.53317197 9.37264659 15.55859375 14.390625 C16.34774673 15.17644958 17.13689972 15.96227417 17.94996643 16.77191162 C19.60426361 18.42117493 21.25723414 20.0717699 22.90893555 21.72363281 C25.44885815 24.26134828 27.99669655 26.79093753 30.54492188 29.3203125 C32.15413412 30.9265943 33.76287522 32.53334828 35.37109375 34.140625 C36.13659042 34.89893616 36.9020871 35.65724731 37.69078064 36.4385376 C38.38893387 37.13976746 39.0870871 37.84099731 39.80639648 38.56347656 C40.42481918 39.18047424 41.04324188 39.79747192 41.68040466 40.4331665 C43 42 43 42 43 44 C43.66 44 44.32 44 45 44 C45 44.66 45 45.32 45 46 C45.66 46 46.32 46 47 46 C49.73397536 48.52892721 51.93063422 50.89595133 54 54 C49.37719788 52.54016775 44.93261143 50.77273622 40.46484375 48.90234375 C35.29018248 47.00797489 30.13871395 46.7346618 24.6875 46.4375 C23.57665039 46.37272461 23.57665039 46.37272461 22.44335938 46.30664062 C20.62908536 46.20129568 18.8145645 46.10021684 17 46 C16.89042969 45.41734375 16.78085937 44.8346875 16.66796875 44.234375 C13.86222111 29.72660673 10.18546413 16.97316638 1.75390625 4.6875 C0 2 0 2 0 0 Z " fill="#328BEF" transform="translate(350,170)"/>
<path d="M0 0 C0.66 0 1.32 0 2 0 C3.27184122 1.59726539 4.4670044 3.25586895 5.625 4.9375 C9.41823438 10.30082773 13.53398465 15.18953134 18 20 C15.39579982 21.30210009 14.25729641 20.8132328 11.4296875 20.22265625 C10.53378906 20.03896484 9.63789063 19.85527344 8.71484375 19.66601562 C7.77769531 19.46685547 6.84054688 19.26769531 5.875 19.0625 C4.45767578 18.76956055 4.45767578 18.76956055 3.01171875 18.47070312 C0.67316334 17.9864568 -1.66391088 17.49598428 -4 17 C-3.43781633 10.79419604 -2.41001379 5.76307645 0 0 Z " fill="#FEBF31" transform="translate(187,189)"/>
</svg>
